<svg xmlns="http://www.w3.org/2000/svg" viewBox="0 0 640 480" role="img" aria-label="Valkey wireless keyboard">
  <rect width="640" height="480" fill="#f7faf8"/>
  <rect x="110" y="170" width="420" height="150" rx="18" fill="#ffffff" stroke="#1f2933" stroke-width="10"/>
  <g fill="#d9efe5" stroke="#1f2933" stroke-width="5">
    <rect x="145" y="205" width="44" height="30" rx="6"/><rect x="203" y="205" width="44" height="30" rx="6"/><rect x="261" y="205" width="44" height="30" rx="6"/><rect x="319" y="205" width="44" height="30" rx="6"/><rect x="377" y="205" width="44" height="30" rx="6"/><rect x="435" y="205" width="44" height="30" rx="6"/>
    <rect x="145" y="250" width="44" height="30" rx="6"/><rect x="203" y="250" width="44" height="30" rx="6"/><rect x="261" y="250" width="160" height="30" rx="6"/><rect x="435" y="250" width="44" height="30" rx="6"/>
  </g>
  <circle cx="500" cy="192" r="12" fill="#2f855a"/>
  <text x="320" y="385" text-anchor="middle" font-family="Inter,Arial,sans-serif" font-size="32" font-weight="700" fill="#1f2933">Wireless Keyboard</text>
</svg>
